<?xml version="1.0" encoding="utf-8"?>
<!-- Generator: Adobe Illustrator 26.3.1, SVG Export Plug-In . SVG Version: 6.00 Build 0)  -->
<svg version="1.1" id="Capa_1" xmlns="http://www.w3.org/2000/svg" xmlns:xlink="http://www.w3.org/1999/xlink" x="0px" y="0px"
	 viewBox="0 0 500 500" style="enable-background:new 0 0 500 500;" xml:space="preserve">
<style type="text/css">
	.st0{fill:#FFFFFF;}
</style>
<path class="st0" d="M113,20c-51.4,0-93,41.6-93,93v275c0,51.4,41.6,93,93,93h275c51.4,0,93-41.6,93-93V112.9v-0.1
	C479.9,61.5,438.5,20,388,20H113z M113,40h275c39.5,0,72.1,32.5,73,73.2V388c0,40.6-32.4,73-73,73h-58V290h48.5l13.3-80H330v-20
	c0-5.5,0.5-5.9,2.5-7.2c2-1.3,7.8-2.8,17.5-2.8h40v-67.3l-6.9-2.2c0,0-31.8-10.5-63.1-10.5c-29,0-50.4,9.5-63.2,26.3
	C244,143.1,240,165.4,240,190v20h-30v80h30v171H113c-40.6,0-73-32.4-73-73V113C40,72.4,72.4,40,113,40z M320,120
	c21.7,0,41.7,5.4,50,7.7V160h-20c-11.3,0-20.5,1-28.3,6c-7.8,5-11.7,14.5-11.7,24v40h58.2l-6.7,40H310v191h-50V270h-30v-40h30v-40
	c0-22.4,4-40.1,12.7-51.6S295,120,320,120z"/>
</svg>
