<svg xmlns="http://www.w3.org/2000/svg" width="151" height="48.604" viewBox="0 0 151 48.604">
  <g id="Grupo_1" data-name="Grupo 1" transform="translate(-741.837 -468.38)">
    <path id="Trazado_1" data-name="Trazado 1" d="M30.132,0V18.857H8.308V0H0V46.681H8.308v-20.7H30.132v20.7H38.44V0Z" transform="translate(742.337 468.88)" fill="#fff" stroke="#fff" stroke-width="1"/>
    <path id="Trazado_2" data-name="Trazado 2" d="M79.99,43.852h-.2a8.819,8.819,0,0,1-3.824,3.462,12.974,12.974,0,0,1-6,1.352,17.213,17.213,0,0,1-3.989-.495,11.864,11.864,0,0,1-3.824-1.648,9.574,9.574,0,0,1-2.9-3.034A8.728,8.728,0,0,1,58.1,38.841a7.875,7.875,0,0,1,2.011-5.67,13.015,13.015,0,0,1,5.176-3.231,29.2,29.2,0,0,1,7.022-1.484q3.857-.361,7.549-.363V27.3a4.889,4.889,0,0,0-2.143-4.385,9.051,9.051,0,0,0-5.11-1.418,11.464,11.464,0,0,0-4.813,1.055,12.958,12.958,0,0,0-3.824,2.571L59.88,20.314a17.849,17.849,0,0,1,6.231-3.759A21.244,21.244,0,0,1,73.265,15.3a17.583,17.583,0,0,1,6.956,1.187,11.333,11.333,0,0,1,4.319,3.1,11.1,11.1,0,0,1,2.209,4.286,18.547,18.547,0,0,1,.626,4.747V47.874H79.99ZM84.869,8.643H63.77V3.5h21.1ZM79.858,33.434h-1.78q-1.913,0-4.022.165a17.458,17.458,0,0,0-3.89.726A8.311,8.311,0,0,0,67.2,35.907a3.5,3.5,0,0,0-1.187,2.8,3.368,3.368,0,0,0,.495,1.88,3.8,3.8,0,0,0,1.286,1.219,5.733,5.733,0,0,0,1.78.659,10.063,10.063,0,0,0,1.978.2q4.088,0,6.2-2.176a8.163,8.163,0,0,0,2.11-5.934Z" transform="translate(722.544 467.688)" fill="#fff" stroke="#fff" stroke-width="1"/>
    <path id="Trazado_3" data-name="Trazado 3" d="M134.545,38.543V39.6a8.459,8.459,0,0,1-.067,1.055H110.413a7.826,7.826,0,0,0,.89,3.132,7.955,7.955,0,0,0,2.011,2.44,10,10,0,0,0,2.835,1.615,9.31,9.31,0,0,0,3.3.593,10.557,10.557,0,0,0,5.011-1.087,9.391,9.391,0,0,0,3.363-3l5.275,4.22q-4.683,6.33-13.582,6.329a19.328,19.328,0,0,1-6.791-1.154,16,16,0,0,1-5.374-3.263,14.7,14.7,0,0,1-3.56-5.176,17.834,17.834,0,0,1-1.286-6.955,18.157,18.157,0,0,1,1.286-6.956,15.483,15.483,0,0,1,8.835-8.769,17.766,17.766,0,0,1,6.626-1.22,16.712,16.712,0,0,1,6.1,1.088,13.235,13.235,0,0,1,4.845,3.231,14.992,14.992,0,0,1,3.2,5.341,22.06,22.06,0,0,1,1.154,7.483m-7.912-3.56a9.785,9.785,0,0,0-.429-2.9,6.464,6.464,0,0,0-3.692-4.121,8.191,8.191,0,0,0-3.33-.627,8.9,8.9,0,0,0-6.033,2.143,7.812,7.812,0,0,0-2.736,5.506Z" transform="translate(707.419 461.59)" fill="#fff" stroke="#fff" stroke-width="1"/>
    <path id="Trazado_4" data-name="Trazado 4" d="M151.1,0H164.09l12.132,33.165h.2L188.42,0h13.054V46.681h-8.242V9.165H193.1L178.925,46.681h-5.8L159.145,9.165h-.132V46.681H151.1Z" transform="translate(690.863 468.88)" fill="#fff" stroke="#fff" stroke-width="1"/>
  </g>
</svg>
