<svg id="Componente_19_5" data-name="Componente 19 – 5" xmlns="http://www.w3.org/2000/svg" width="151" height="48.604" viewBox="0 0 151 48.604">
  <path id="Trazado_1" data-name="Trazado 1" d="M30.132,0V18.857H8.308V0H0V46.681H8.308v-20.7H30.132v20.7H38.44V0Z" transform="translate(0.5 0.5)" fill="#6482ff"/>
  <path id="Trazado_1_-_Contorno" data-name="Trazado 1 - Contorno" d="M-.5-.5H8.808V18.357H29.632V-.5H38.94V47.181H29.632v-20.7H8.808v20.7H-.5ZM7.808.5H.5V46.181H7.808v-20.7H30.632v20.7H37.94V.5H30.632V19.357H7.808Z" transform="translate(0.5 0.5)" fill="#6482ff"/>
  <path id="Trazado_2" data-name="Trazado 2" d="M79.99,43.852h-.2a8.819,8.819,0,0,1-3.824,3.462,12.974,12.974,0,0,1-6,1.352,17.213,17.213,0,0,1-3.989-.495,11.864,11.864,0,0,1-3.824-1.648,9.574,9.574,0,0,1-2.9-3.034A8.728,8.728,0,0,1,58.1,38.841a7.875,7.875,0,0,1,2.011-5.67,13.015,13.015,0,0,1,5.176-3.231,29.2,29.2,0,0,1,7.022-1.484q3.857-.361,7.549-.363V27.3a4.889,4.889,0,0,0-2.143-4.385,9.051,9.051,0,0,0-5.11-1.418,11.464,11.464,0,0,0-4.813,1.055,12.958,12.958,0,0,0-3.824,2.571L59.88,20.314a17.849,17.849,0,0,1,6.231-3.759A21.244,21.244,0,0,1,73.265,15.3a17.583,17.583,0,0,1,6.956,1.187,11.333,11.333,0,0,1,4.319,3.1,11.1,11.1,0,0,1,2.209,4.286,18.547,18.547,0,0,1,.626,4.747V47.874H79.99ZM84.869,8.643H63.77V3.5h21.1ZM79.858,33.434h-1.78q-1.913,0-4.022.165a17.458,17.458,0,0,0-3.89.726A8.311,8.311,0,0,0,67.2,35.907a3.5,3.5,0,0,0-1.187,2.8,3.368,3.368,0,0,0,.495,1.88,3.8,3.8,0,0,0,1.286,1.219,5.733,5.733,0,0,0,1.78.659,10.063,10.063,0,0,0,1.978.2q4.088,0,6.2-2.176a8.163,8.163,0,0,0,2.11-5.934Z" transform="translate(-19.293 -0.692)" fill="#6482ff"/>
  <path id="Trazado_2_-_Contorno" data-name="Trazado 2 - Contorno" d="M69.968,49.165a17.8,17.8,0,0,1-4.1-.508,12.416,12.416,0,0,1-3.984-1.718,10.111,10.111,0,0,1-3.052-3.189,9.254,9.254,0,0,1-1.228-4.91,8.39,8.39,0,0,1,2.149-6.015,13.569,13.569,0,0,1,5.371-3.358,29.831,29.831,0,0,1,7.142-1.51c2.412-.226,4.8-.348,7.1-.363V27.3a4.384,4.384,0,0,0-1.919-3.968A8.6,8.6,0,0,0,72.605,22,11.02,11.02,0,0,0,68,23.01a12.522,12.522,0,0,0-3.678,2.47l-.384.384-4.749-5.591.351-.325a18.429,18.429,0,0,1,6.4-3.863A21.84,21.84,0,0,1,73.265,14.8,18.149,18.149,0,0,1,80.42,16.03a11.876,11.876,0,0,1,4.5,3.239,11.652,11.652,0,0,1,2.307,4.477,19.134,19.134,0,0,1,.643,4.875V48.374H79.49V45.181A10.082,10.082,0,0,1,76.2,47.758,13.527,13.527,0,0,1,69.968,49.165Zm9.89-20.572c-2.423,0-4.947.121-7.5.36a28.834,28.834,0,0,0-6.9,1.457,12.581,12.581,0,0,0-4.981,3.105A7.429,7.429,0,0,0,58.6,38.841a8.279,8.279,0,0,0,1.08,4.387,9.12,9.12,0,0,0,2.75,2.878,11.419,11.419,0,0,0,3.665,1.579,16.8,16.8,0,0,0,3.873.481,12.539,12.539,0,0,0,5.772-1.3,8.371,8.371,0,0,0,3.616-3.262l.143-.255h.99v4.022h6.385V28.621a18.133,18.133,0,0,0-.61-4.62,10.659,10.659,0,0,0-2.111-4.095,10.891,10.891,0,0,0-4.132-2.959A17.18,17.18,0,0,0,73.265,15.8a20.843,20.843,0,0,0-6.987,1.224,17.454,17.454,0,0,0-5.7,3.334l3.431,4.04a13.919,13.919,0,0,1,3.578-2.3A12.014,12.014,0,0,1,72.605,21a9.582,9.582,0,0,1,5.386,1.5,5.381,5.381,0,0,1,2.367,4.8v1.291ZM71.551,43.165a10.61,10.61,0,0,1-2.076-.208,6.258,6.258,0,0,1-1.934-.718,4.306,4.306,0,0,1-1.452-1.378,3.872,3.872,0,0,1-.576-2.153,4,4,0,0,1,1.36-3.181,8.842,8.842,0,0,1,3.143-1.68,18.042,18.042,0,0,1,4-.747c1.427-.11,2.793-.166,4.061-.166h2.28v1.621a8.679,8.679,0,0,1-2.251,6.282C76.609,42.382,74.4,43.165,71.551,43.165Zm6.527-9.231c-1.242,0-2.582.055-3.983.163a17.042,17.042,0,0,0-3.778.7,7.853,7.853,0,0,0-2.791,1.484,3,3,0,0,0-1.013,2.423,2.9,2.9,0,0,0,.413,1.606,3.315,3.315,0,0,0,1.119,1.06,5.263,5.263,0,0,0,1.627.6,9.609,9.609,0,0,0,1.88.188,7.814,7.814,0,0,0,5.839-2.024,7.72,7.72,0,0,0,1.969-5.586v-.621ZM85.369,9.143H63.27V3h22.1Zm-21.1-1h20.1V4H64.27Z" transform="translate(-19.293 -0.692)" fill="#6482ff"/>
  <path id="Trazado_3" data-name="Trazado 3" d="M134.545,38.543V39.6a8.459,8.459,0,0,1-.067,1.055H110.413a7.826,7.826,0,0,0,.89,3.132,7.955,7.955,0,0,0,2.011,2.44,10,10,0,0,0,2.835,1.615,9.31,9.31,0,0,0,3.3.593,10.557,10.557,0,0,0,5.011-1.087,9.391,9.391,0,0,0,3.363-3l5.275,4.22q-4.683,6.33-13.582,6.329a19.328,19.328,0,0,1-6.791-1.154,16,16,0,0,1-5.374-3.263,14.7,14.7,0,0,1-3.56-5.176,17.834,17.834,0,0,1-1.286-6.955,18.157,18.157,0,0,1,1.286-6.956,15.483,15.483,0,0,1,8.835-8.769,17.766,17.766,0,0,1,6.626-1.22,16.712,16.712,0,0,1,6.1,1.088,13.235,13.235,0,0,1,4.845,3.231,14.992,14.992,0,0,1,3.2,5.341,22.06,22.06,0,0,1,1.154,7.483m-7.912-3.56a9.785,9.785,0,0,0-.429-2.9,6.464,6.464,0,0,0-3.692-4.121,8.191,8.191,0,0,0-3.33-.627,8.9,8.9,0,0,0-6.033,2.143,7.812,7.812,0,0,0-2.736,5.506Z" transform="translate(-34.418 -6.79)" fill="#6482ff"/>
  <path id="Trazado_3_-_Contorno" data-name="Trazado 3 - Contorno" d="M119.512,55.394a19.915,19.915,0,0,1-6.966-1.185,16.567,16.567,0,0,1-5.539-3.365,15.268,15.268,0,0,1-3.681-5.35A18.412,18.412,0,0,1,102,38.346a18.736,18.736,0,0,1,1.323-7.146,15.983,15.983,0,0,1,9.113-9.044,18.345,18.345,0,0,1,6.811-1.256,17.287,17.287,0,0,1,6.28,1.122,13.79,13.79,0,0,1,5.026,3.352,15.559,15.559,0,0,1,3.307,5.517,22.657,22.657,0,0,1,1.184,7.653V39.6a9.011,9.011,0,0,1-.07,1.117l-.055.438H110.971a7.224,7.224,0,0,0,.773,2.4,7.5,7.5,0,0,0,1.886,2.288,9.543,9.543,0,0,0,2.7,1.535,8.856,8.856,0,0,0,3.121.561,10.118,10.118,0,0,0,4.776-1.029,8.941,8.941,0,0,0,3.186-2.843l.3-.442,6.07,4.857-.286.387a15.454,15.454,0,0,1-5.927,4.9A18.966,18.966,0,0,1,119.512,55.394ZM119.248,21.9a17.35,17.35,0,0,0-6.442,1.185,14.984,14.984,0,0,0-8.557,8.495A17.743,17.743,0,0,0,103,38.346a17.422,17.422,0,0,0,1.247,6.762,14.276,14.276,0,0,0,3.439,5,15.573,15.573,0,0,0,5.208,3.161,18.92,18.92,0,0,0,6.617,1.123c5.555,0,9.889-1.932,12.889-5.744l-4.485-3.588a9.916,9.916,0,0,1-3.224,2.725,11.1,11.1,0,0,1-5.246,1.146,9.853,9.853,0,0,1-3.472-.625,10.54,10.54,0,0,1-2.976-1.7,8.488,8.488,0,0,1-2.136-2.591,8.359,8.359,0,0,1-.948-3.329l-.041-.538h24.152c.013-.186.02-.372.02-.555V38.543a21.67,21.67,0,0,0-1.124-7.313,14.568,14.568,0,0,0-3.09-5.166,12.8,12.8,0,0,0-4.665-3.11A16.293,16.293,0,0,0,119.248,21.9Zm7.885,13.583h-17.26l.042-.539a8.329,8.329,0,0,1,2.907-5.845,9.422,9.422,0,0,1,6.36-2.265,8.723,8.723,0,0,1,3.531.67,6.964,6.964,0,0,1,3.968,4.43,10.329,10.329,0,0,1,.451,3.049Zm-16.163-1H126.12a9.224,9.224,0,0,0-.394-2.254,5.965,5.965,0,0,0-3.417-3.811,7.738,7.738,0,0,0-3.127-.584,8.45,8.45,0,0,0-5.706,2.021A7.19,7.19,0,0,0,110.969,34.483Z" transform="translate(-34.418 -6.79)" fill="#6482ff"/>
  <path id="Trazado_4" data-name="Trazado 4" d="M151.1,0H164.09l12.132,33.165h.2L188.42,0h13.054V46.681h-8.242V9.165H193.1L178.925,46.681h-5.8L159.145,9.165h-.132V46.681H151.1Z" transform="translate(-50.974 0.5)" fill="#6482ff"/>
  <path id="Trazado_4_-_Contorno" data-name="Trazado 4 - Contorno" d="M150.6-.5h13.838l11.88,32.473L188.069-.5h13.905V47.181h-9.242V11.554L179.27,47.181h-6.5l-13.263-35.6v35.6H150.6ZM163.74.5H151.6V46.181h6.912V8.665h.979L173.47,46.181h5.109L192.755,8.665h.977V46.181h7.242V.5h-12.2l-12,33.165h-.9Z" transform="translate(-50.974 0.5)" fill="#6482ff"/>
</svg>
