<?xml version="1.0" encoding="utf-8"?>
<!-- Generator: Adobe Illustrator 26.3.1, SVG Export Plug-In . SVG Version: 6.00 Build 0)  -->
<svg version="1.1" id="Capa_1" xmlns="http://www.w3.org/2000/svg" xmlns:xlink="http://www.w3.org/1999/xlink" x="0px" y="0px"
	 viewBox="0 0 500 500" style="enable-background:new 0 0 500 500;" xml:space="preserve">
<style type="text/css">
	.st0{fill:#FFFFFF;}
</style>
<path class="st0" d="M249.6,10.5c-2.1,0.1-4.1,0.8-5.8,2.1l-230,179.5c-4.4,3.4-5.1,9.7-1.7,14c3.4,4.4,9.7,5.1,14,1.7L40,197.1V460
	c0,5.5,4.5,10,10,10h138.3c1.1,0.2,2.2,0.2,3.3,0h116.7c1.1,0.2,2.2,0.2,3.3,0H450c5.5,0,10-4.5,10-10V197.1l13.8,10.8
	c4.4,3.4,10.6,2.6,14-1.7c3.4-4.4,2.6-10.6-1.7-14l0,0L410,132.7V60h-60v25.9l-93.8-73.2C254.3,11.2,252,10.5,249.6,10.5z M250,33.2
	l190,148.3V450H320V260H180v190H60V181.5L250,33.2z M370,80h20v37.1l-20-15.6V80z M200,280h100v170H200V280z"/>
</svg>
