<?xml version="1.0" encoding="utf-8"?>
<!-- Generator: Adobe Illustrator 26.3.1, SVG Export Plug-In . SVG Version: 6.00 Build 0)  -->
<svg version="1.1" id="Capa_1" xmlns="http://www.w3.org/2000/svg" xmlns:xlink="http://www.w3.org/1999/xlink" x="0px" y="0px"
	 viewBox="0 0 500 500" style="enable-background:new 0 0 500 500;" xml:space="preserve">
<style type="text/css">
	.st0{fill:#FFFFFF;}
</style>
<path class="st0" d="M160,30C88.3,30,30,88.3,30,160v180c0,71.7,58.3,130,130,130h180c71.7,0,130-58.3,130-130V160
	c0-71.7-58.3-130-130-130H160z M160,50h180c60.9,0,110,49.1,110,110v180c0,60.9-49.1,110-110,110H160c-60.9,0-110-49.1-110-110V160
	C50,99.1,99.1,50,160,50z M370,110c-11,0-20,9-20,20s9,20,20,20s20-9,20-20S381,110,370,110z M250,140c-60.6,0-110,49.4-110,110
	s49.4,110,110,110s110-49.4,110-110S310.6,140,250,140z M250,160c49.8,0,90,40.2,90,90s-40.2,90-90,90s-90-40.2-90-90
	S200.2,160,250,160z"/>
</svg>
