<?xml version="1.0" encoding="iso-8859-1"?>
<!-- Generator: Adobe Illustrator 19.0.0, SVG Export Plug-In . SVG Version: 6.00 Build 0)  -->
<svg version="1.1" id="Layer_1" xmlns="http://www.w3.org/2000/svg" xmlns:xlink="http://www.w3.org/1999/xlink" x="0px" y="0px"
	 viewBox="0 0 512 512" style="enable-background:new 0 0 512 512;" xml:space="preserve">
<g>
	<g>
		<path d="M437.019,74.981C388.667,26.628,324.38,0,256,0S123.333,26.628,74.981,74.981C26.629,123.333,0,187.62,0,256
			s26.629,132.667,74.981,181.019C123.333,485.372,187.62,512,256,512s132.667-26.628,181.019-74.981
			C485.371,388.667,512,324.38,512,256S485.371,123.333,437.019,74.981z M425.683,425.682
			C380.358,471.005,320.097,495.967,256,495.967s-124.358-24.962-169.683-70.285C40.994,380.358,16.033,320.097,16.033,256
			S40.994,131.642,86.317,86.318C131.642,40.995,191.903,16.033,256,16.033s124.358,24.962,169.683,70.285
			c45.323,45.323,70.284,105.584,70.284,169.682S471.006,380.358,425.683,425.682z"/>
	</g>
</g>
<g>
	<g>
		<path d="M256,42.756C138.416,42.756,42.756,138.416,42.756,256S138.416,469.244,256,469.244S469.244,373.584,469.244,256
			S373.584,42.756,256,42.756z M256,453.211c-108.743,0-197.211-88.469-197.211-197.211S147.257,58.789,256,58.789
			S453.211,147.258,453.211,256S364.743,453.211,256,453.211z"/>
	</g>
</g>
<g>
	<g>
		<path d="M343.912,326.961c-3.316-2.936-8.381-2.629-11.316,0.686c-17.995,20.313-42.16,31.501-68.045,31.501
			c-44.218,0-81.441-33.254-91.755-78.029h100.306c4.427,0,8.017-3.588,8.017-8.017c0-4.428-3.589-8.017-8.017-8.017H170.325
			c-0.24-2.995-0.371-6.023-0.371-9.086s0.13-6.091,0.371-9.086h102.777c4.427,0,8.017-3.588,8.017-8.017s-3.589-8.017-8.017-8.017
			H172.796c10.314-44.775,47.537-78.029,91.755-78.029c25.888,0,50.055,11.191,68.051,31.51c2.936,3.316,8.002,3.624,11.316,0.686
			c3.315-2.935,3.621-8.002,0.686-11.316c-21.082-23.803-49.512-36.913-80.054-36.913c-53.004,0-97.415,40.368-108.15,94.063
			h-20.118c-4.427,0-8.017,3.588-8.017,8.017s3.589,8.017,8.017,8.017h17.955c-0.211,2.999-0.319,6.03-0.319,9.086
			s0.108,6.086,0.319,9.086h-17.955c-4.427,0-8.017,3.588-8.017,8.017c0,4.428,3.589,8.017,8.017,8.017h20.118
			c10.735,53.695,55.145,94.063,108.15,94.063c30.537,0,58.966-13.107,80.046-36.905
			C347.534,334.962,347.226,329.897,343.912,326.961z"/>
	</g>
</g>
<g>
</g>
<g>
</g>
<g>
</g>
<g>
</g>
<g>
</g>
<g>
</g>
<g>
</g>
<g>
</g>
<g>
</g>
<g>
</g>
<g>
</g>
<g>
</g>
<g>
</g>
<g>
</g>
<g>
</g>
</svg>
