<?xml version="1.0" encoding="UTF-8"?><svg id="Capa_1" xmlns="http://www.w3.org/2000/svg" viewBox="0 0 593.52 107.61"><defs><style>.cls-1{fill:#fff;}</style></defs><path class="cls-1" d="M175.89,64.94l-1.71-.3c-2.69-12.68-5.49-25.33-7.98-38.05-.41-2.11-.24-5.76,1-6.52,4.92-2.99,3.37-7.44,3.7-11.57,.37-4.61-1.78-6.22-6.21-6.17-11,.15-22.01,.06-33.01,.06-10.88,0-10.96,0-10.51,10.99,.07,1.77,.88,3.73,1.91,5.2,1.81,2.58,4.9,4.53,5.97,7.31,2.75,7.11,4.77,14.51,6.93,21.83,5.35,18.19,10.61,36.41,15.9,54.61,.83,2.85,2.38,4.56,5.69,4.48,6.5-.16,13.02,.15,19.5-.24,1.61-.1,3.99-1.85,4.51-3.36,3.57-10.38,6.71-20.9,10.1-31.35,.48-1.47,1.51-2.76,2.89-5.18,.89,2.45,1.32,3.48,1.63,4.54,3.11,10.53,6.3,21.03,9.25,31.61,.82,2.95,2.35,4.02,5.31,3.95,6.17-.13,12.34-.14,18.5,.04,2.98,.08,4.45-1,5.38-3.89,6.36-19.78,12.78-39.55,19.42-59.24,2.43-7.21,4.24-15.2,8.72-20.98,3.74-4.82,5.29-9.01,5.15-14.67-.1-4.07-1.78-5.73-5.75-5.68-7.5,.09-15,.07-22.51,.04q-11.32-.03-10.75,11.4c.03,.5-.15,1.16,.1,1.47,.95,1.15,1.86,2.79,3.11,3.17,6.95,2.09,8.32,3.61,6.71,10.58-1.83,7.93-4.27,15.72-6.53,23.55-1.26,4.37-2.7,8.7-4.06,13.04-4.54-13.5-8.01-26.83-11.2-40.22-.7-2.93,.43-5.38,3.79-6.68,1.41-.55,2.72-2.56,3.15-4.16,.54-2.02,0-4.31,.18-6.46,.38-4.41-1.6-5.82-5.89-5.75-12.17,.2-24.34-.09-36.51,.2-2.42,.06-6.74,1.69-6.84,2.87-.34,4.24-.81,10.29,1.64,12.54,4.08,3.75,6.06,7.84,6.95,12.69,.58,3.15,.6,6.69-.21,9.77-2.17,8.25-4.92,16.36-7.45,24.52Zm208.3-22.5l1.42-.33c2.87,5.39,5.78,10.76,8.61,16.17,7.48,14.32,14.73,28.85,27.52,39.39,17.77,14.64,47.34,13.73,57.84-14.79,6.43-17.45,6.07-35,1.16-52.48-3.25-11.59-9.69-21.44-21.77-25.65-10.96-3.82-21.64-2.78-26.14,6.26-3.58,7.17-3.86,14.8-.06,22.06,1.17,2.24,3.17,4.31,5.27,5.75,4.3,2.94,8.87,2.92,13.73,.69,7.15-3.28,11.07-.81,11.93,7.02,1.26,11.52-7.1,18.62-18.53,16.05-8.98-2.02-16.08-7.05-22.45-13.29-12.6-12.35-21.95-27.14-30.8-42.22-1.93-3.29-4.14-4.8-7.93-4.73-8.83,.17-17.66,.07-26.49,.09-12.07,.03-12.69,.68-11.02,12.75,.18,1.3,1.5,3.21,2.6,3.47,5.72,1.32,7.19,5.11,7.16,10.36-.09,17.16-.12,34.32,.02,51.48,.04,5.24-1.81,8.76-7.07,9.88-3.09,.66-4.02,2.53-3.91,5.39,.07,1.83,.09,3.67-.04,5.49-.3,4.03,1.36,5.67,5.52,5.6,10.99-.19,22,.06,32.99-.1,11.85-.17,10.64,2.47,10.62-11.62,0-.17,.06-.39-.03-.49-1.07-1.21-2.02-3.25-3.27-3.46-5.65-.92-7.32-4.33-7.27-9.53,.11-11.49,.01-22.99,.04-34.49,0-1.58,.23-3.17,.35-4.75Zm108.33,43.91h-.04c0,5,.17,10.01-.05,15-.19,4.2,1.64,5.69,5.66,5.48,3.82-.2,7.71,.3,11.48-.19,2.15-.28,4.08-2.02,6.19-2.91,1.32-.56,2.89-1.3,4.17-1.04,7.64,1.52,15.17,4.31,22.85,4.78,16.21,.98,31.3-2.73,42.38-15.79,12.44-14.65,12.39-40.71-9.58-49.36-7.8-3.07-16.41-4.1-24.66-6.03-7.11-1.66-14.34-2.92-21.28-5.12-2.13-.68-4.92-3.98-4.79-5.9,.16-2.31,2.76-5.8,4.92-6.35,5-1.27,10.48-1.92,15.58-1.3,10.09,1.23,17.92,6.75,23.52,15.28,3.09,4.7,7.81,3,11.85,2.59,3.97-.4,2.98-4.18,3.04-6.86,.11-4.66,.04-9.33,0-14-.16-16.17,2.24-13.53-14.23-13.7-1.92-.02-4.57,.67-5.62,2.02-1.89,2.42-3.42,2.26-5.95,1.38-16.18-5.58-32.29-6.6-47.84,1.99-11.24,6.21-17.5,16.01-17.75,28.79-.23,11.82,6.01,20.56,16.67,25.04,7.26,3.05,15.29,4.34,23.04,6.14,7.6,1.76,15.29,3.07,22.91,4.76,3.38,.75,6.29,2.33,6.69,6.38,.44,4.41-1.79,7.22-5.4,9.29-9.33,5.33-18.87,4.68-28.33,.67-8.63-3.65-15.89-9.39-20.83-17.32-3.22-5.17-7.67-4.35-11.85-3.64-4.61,.78-2.44,5.12-2.66,7.95-.31,3.98-.08,7.99-.08,11.99ZM57.38,2.42v-.03c-17.16,0-34.33,.03-51.49-.03C2.45,2.35-.02,3.05,0,7.22c.06,9.66-.07,19.33,.08,28.99,.02,1.47,.76,3.54,1.87,4.26,4.47,2.92,10.87-.15,11.88-5.41,1.97-10.31,9.18-16.16,19.59-16.2,3.48-.01,5.16,.95,5.13,4.79-.13,18.99-.1,37.98-.07,56.98,0,5.34-1.97,8.8-7.59,10.11-1.48,.35-2.93,2.71-3.51,4.45-.6,1.8,.07,3.98-.17,5.95-.55,4.54,1.64,5.79,5.81,5.75,14.16-.13,28.33,.02,42.49-.06,12.02-.06,10.61,1.51,10.71-11.14,.02-2.89-.67-4.7-3.92-5.19-4.66-.71-6.81-3.79-6.81-8.42,0-4.66,.04-9.33,.05-13.99,.02-14.66,0-29.32,.05-43.98,0-2.26-.4-5.23,3.11-5.09,3.6,.14,7.35,.41,10.74,1.51,7.28,2.36,9.46,8.79,11.08,15.43,1.27,5.19,2.75,5.82,9.7,5.05,4.7-.52,3.7-3.93,3.74-6.75,.09-8.33,.05-16.66,.04-24.99,0-6.6-.22-6.81-6.65-6.82-16.66,0-33.33,0-49.99,0Zm248.1,104.36v.02c6.33,0,12.66,.07,18.99-.01,11.35-.14,9.97,1.49,10.14-10.13,.05-3.66-.58-5.93-4.77-6.61-4.21-.68-5.97-3.86-5.96-8.04,.02-18.32,0-36.65,.05-54.97,.01-4.36,1.89-7.46,6.52-7.98,3.24-.37,4.19-2.19,4.1-5.08-.06-1.83-.16-3.68,0-5.49,.42-4.52-1.44-6.23-6.05-6.16-13.83,.21-27.66,.08-41.48,.09-11,0-10.92,0-10.78,10.86,.04,3.24,.59,5.41,4.44,5.75,4.15,.37,6.21,3.23,6.23,7.17,.09,18.99,.04,37.97,.01,56.96,0,3.62-1.8,6.36-5.32,6.84-4.91,.68-5.86,3.43-5.34,7.64,.19,1.48,.16,3.01,.02,4.49-.33,3.53,1.35,4.73,4.7,4.68,8.16-.1,16.33-.03,24.49-.03Z"/><path class="cls-1" d="M175.89,64.94c2.52-8.16,5.27-16.26,7.45-24.52,.81-3.08,.79-6.62,.21-9.77-.89-4.85-2.87-8.94-6.95-12.69-2.45-2.25-1.98-8.29-1.64-12.54,.1-1.18,4.42-2.81,6.84-2.87,12.16-.29,24.34,0,36.51-.2,4.28-.07,6.27,1.34,5.89,5.75-.19,2.15,.37,4.44-.18,6.46-.43,1.6-1.74,3.61-3.15,4.16-3.36,1.31-4.48,3.75-3.79,6.68,3.18,13.39,6.65,26.72,11.2,40.22,1.36-4.35,2.8-8.67,4.06-13.04,2.26-7.83,4.7-15.62,6.53-23.55,1.61-6.97,.24-8.49-6.71-10.58-1.25-.38-2.16-2.02-3.11-3.17-.25-.31-.07-.97-.1-1.47q-.57-11.45,10.75-11.4c7.5,.02,15.01,.05,22.51-.04,3.97-.05,5.65,1.61,5.75,5.68,.14,5.66-1.42,9.85-5.15,14.67-4.48,5.78-6.29,13.77-8.72,20.98-6.64,19.69-13.06,39.46-19.42,59.24-.93,2.89-2.4,3.97-5.38,3.89-6.16-.17-12.34-.17-18.5-.04-2.97,.06-4.49-1-5.31-3.95-2.95-10.57-6.14-21.08-9.25-31.61-.31-1.06-.75-2.09-1.63-4.54-1.37,2.42-2.41,3.71-2.89,5.18-3.38,10.44-6.52,20.97-10.1,31.35-.52,1.51-2.9,3.26-4.51,3.36-6.48,.4-13,.08-19.5,.24-3.31,.08-4.86-1.64-5.69-4.48-5.29-18.21-10.55-36.42-15.9-54.61-2.15-7.33-4.18-14.73-6.93-21.83-1.08-2.78-4.16-4.73-5.97-7.31-1.03-1.47-1.84-3.43-1.91-5.2-.45-11-.37-11,10.51-10.99,11,0,22.01,.09,33.01-.06,4.43-.06,6.58,1.56,6.21,6.17-.33,4.13,1.21,8.58-3.7,11.57-1.23,.75-1.41,4.41-1,6.52,2.49,12.72,5.28,25.37,7.98,38.05l1.71,.3Z"/><path class="cls-1" d="M384.19,42.44c-.12,1.58-.35,3.16-.35,4.75-.03,11.5,.07,22.99-.04,34.49-.05,5.2,1.62,8.61,7.27,9.53,1.25,.2,2.2,2.24,3.27,3.46,.09,.1,.03,.32,.03,.49,.01,14.09,1.22,11.45-10.62,11.62-11,.16-22-.09-32.99,.1-4.16,.07-5.82-1.57-5.52-5.6,.13-1.82,.12-3.67,.04-5.49-.12-2.86,.82-4.73,3.91-5.39,5.26-1.12,7.12-4.65,7.07-9.88-.14-17.16-.11-34.32-.02-51.48,.03-5.25-1.44-9.04-7.16-10.36-1.11-.25-2.42-2.17-2.6-3.47-1.67-12.07-1.05-12.72,11.02-12.75,8.83-.02,17.66,.08,26.49-.09,3.79-.07,6,1.44,7.93,4.73,8.85,15.09,18.2,29.87,30.8,42.22,6.37,6.24,13.46,11.27,22.45,13.29,11.43,2.57,19.79-4.53,18.53-16.05-.86-7.84-4.78-10.31-11.93-7.02-4.86,2.23-9.43,2.25-13.73-.69-2.1-1.44-4.1-3.51-5.27-5.75-3.8-7.27-3.51-14.89,.06-22.06,4.51-9.03,15.18-10.08,26.14-6.26,12.07,4.21,18.51,14.05,21.77,25.65,4.9,17.48,5.26,35.03-1.16,52.48-10.51,28.52-40.08,29.42-57.84,14.79-12.78-10.53-20.04-25.07-27.52-39.39-2.83-5.41-5.74-10.78-8.61-16.17l-1.42,.33Z"/><path class="cls-1" d="M492.51,86.35c0-4-.23-8.02,.08-11.99,.22-2.83-1.95-7.17,2.66-7.95,4.19-.71,8.63-1.52,11.85,3.64,4.94,7.93,12.2,13.67,20.83,17.32,9.46,4.01,19,4.66,28.33-.67,3.61-2.06,5.84-4.88,5.4-9.29-.4-4.05-3.32-5.63-6.69-6.38-7.61-1.69-15.31-3-22.91-4.76-7.75-1.8-15.78-3.09-23.04-6.14-10.66-4.48-16.91-13.21-16.67-25.04,.25-12.78,6.51-22.58,17.75-28.79,15.55-8.59,31.67-7.57,47.84-1.99,2.53,.87,4.07,1.04,5.95-1.38,1.05-1.35,3.7-2.04,5.62-2.02,16.47,.17,14.07-2.46,14.23,13.7,.05,4.67,.11,9.34,0,14-.06,2.68,.93,6.46-3.04,6.86-4.04,.41-8.76,2.12-11.85-2.59-5.6-8.53-13.43-14.05-23.52-15.28-5.1-.62-10.57,.03-15.58,1.3-2.16,.55-4.77,4.04-4.92,6.35-.13,1.92,2.66,5.22,4.79,5.9,6.94,2.2,14.17,3.46,21.28,5.12,8.25,1.93,16.86,2.96,24.66,6.03,21.97,8.65,22.02,34.71,9.58,49.36-11.08,13.05-26.17,16.76-42.38,15.79-7.68-.46-15.21-3.26-22.85-4.78-1.28-.25-2.85,.49-4.17,1.04-2.11,.89-4.04,2.63-6.19,2.91-3.77,.49-7.66-.01-11.48,.19-4.02,.21-5.84-1.28-5.66-5.48,.22-4.99,.05-10,.05-15h.04Z"/><path class="cls-1" d="M57.38,2.42c16.66,0,33.33,0,49.99,0,6.44,0,6.65,.22,6.65,6.82,0,8.33,.05,16.66-.04,24.99-.03,2.82,.97,6.23-3.74,6.75-6.96,.77-8.43,.14-9.7-5.05-1.63-6.64-3.8-13.07-11.08-15.43-3.39-1.1-7.14-1.37-10.74-1.51-3.51-.14-3.1,2.83-3.11,5.09-.05,14.66-.04,29.32-.05,43.98,0,4.66-.05,9.33-.05,13.99,0,4.63,2.15,7.71,6.81,8.42,3.24,.5,3.94,2.3,3.92,5.19-.1,12.66,1.31,11.08-10.71,11.14-14.16,.08-28.33-.07-42.49,.06-4.16,.04-6.35-1.22-5.81-5.75,.24-1.97-.44-4.15,.17-5.95,.58-1.73,2.03-4.1,3.51-4.45,5.62-1.31,7.6-4.77,7.59-10.11-.03-18.99-.07-37.98,.07-56.98,.03-3.84-1.66-4.8-5.13-4.79-10.41,.04-17.63,5.9-19.59,16.2-1,5.26-7.41,8.33-11.88,5.41-1.11-.72-1.85-2.79-1.87-4.26C-.07,26.54,.06,16.88,0,7.22-.02,3.05,2.45,2.35,5.89,2.36c17.16,.06,34.33,.03,51.49,.03v.03Z"/><path class="cls-1" d="M305.48,106.78c-8.16,0-16.33-.07-24.49,.03-3.35,.04-5.03-1.15-4.7-4.68,.14-1.49,.17-3.02-.02-4.49-.53-4.21,.43-6.96,5.34-7.64,3.52-.49,5.31-3.22,5.32-6.84,.03-18.99,.08-37.97-.01-56.96-.02-3.95-2.08-6.81-6.23-7.17-3.84-.34-4.39-2.51-4.44-5.75-.15-10.86-.23-10.86,10.78-10.86,13.83,0,27.66,.12,41.48-.09,4.6-.07,6.46,1.65,6.05,6.16-.17,1.82-.07,3.66,0,5.49,.09,2.89-.85,4.71-4.1,5.08-4.62,.52-6.51,3.62-6.52,7.98-.05,18.32-.03,36.65-.05,54.97,0,4.18,1.75,7.36,5.96,8.04,4.19,.68,4.83,2.94,4.77,6.61-.17,11.61,1.21,9.98-10.14,10.13-6.33,.08-12.66,.01-18.99,.01v-.02Z"/></svg>