<?xml version="1.0" encoding="utf-8"?>
<!-- Generator: Adobe Illustrator 26.3.1, SVG Export Plug-In . SVG Version: 6.00 Build 0)  -->
<svg version="1.1" id="Capa_1" xmlns="http://www.w3.org/2000/svg" xmlns:xlink="http://www.w3.org/1999/xlink" x="0px" y="0px"
	 viewBox="0 0 500 500" style="enable-background:new 0 0 500 500;" xml:space="preserve">
<style type="text/css">
	.st0{fill:#FFFFFF;}
</style>
<path class="st0" d="M244,90c-66,0-128,5-161,12c-22,5-41,20-45,43c-4,24-8,60-8,105s4,80,9,105c4,22,23,38,45,43c35,7,95,12,161,12
	s126-5,161-12c22-5,41-20,45-43c4-25,9-61,10-106c0-45-5-81-10-106c-4-22-23-38-45-43C371,95,310,90,244,90z M244,110
	c72,0,130,6,158,11c15,4,27,14,29,27c6,32,10,66,10,101c-1,43-6,78-10,103c-3,19-23,25-29,27c-36,7-96,12-156,12s-121-4-156-12
	c-15-4-27-14-29-27c-8-28-11-65-11-102c0-46,4-80,8-101c3-19,24-25,29-27C120,115,181,110,244,110z M190,170v160l140-80L190,170z
	 M210,204l80,46l-80,46V204z"/>
</svg>
