<?xml version="1.0" encoding="utf-8"?>
<!-- Generator: Adobe Illustrator 26.3.1, SVG Export Plug-In . SVG Version: 6.00 Build 0)  -->
<svg version="1.1" id="Capa_1" xmlns="http://www.w3.org/2000/svg" xmlns:xlink="http://www.w3.org/1999/xlink" x="0px" y="0px"
	 viewBox="0 0 500 500" style="enable-background:new 0 0 500 500;" xml:space="preserve">
<style type="text/css">
	.st0{fill:#FFFFFF;}
</style>
<path class="st0" d="M250,20C123.1,20,20,123.1,20,250s103.1,230,230,230s230-103.1,230-230S376.9,20,250,20z M250,40
	c116.1,0,210,93.9,210,210s-93.9,210-210,210c-21.2,0-41.7-3.2-61-9c8.6-14.4,19.7-34.9,24.1-51.9c2.6-10.1,13.4-51.1,13.4-51.1
	c7,13.4,27.5,24.7,49.3,24.7c64.8,0,111.6-59.6,111.6-133.7c0-71-58-124.2-132.6-124.2c-92.8,0-142.1,62.3-142.1,130.1
	c0,31.5,16.8,70.8,43.6,83.3c4.1,1.9,6.3,1.1,7.2-2.9c0.7-3,4.3-17.6,6-24.4c0.5-2.2,0.3-4-1.5-6.2c-8.9-10.8-16-30.6-16-49.1
	c0-47.4,35.9-93.3,97.1-93.3c52.8,0,89.8,36,89.8,87.5c0,58.2-29.4,98.5-67.6,98.5c-21.1,0-36.9-17.5-31.8-38.9
	c6.1-25.6,17.8-53.1,17.8-71.6c0-16.5-8.9-30.3-27.2-30.3c-21.6,0-38.9,22.3-38.9,52.2c0,19,6.4,31.9,6.4,31.9
	s-21.3,90.1-25.2,106.9c-3.9,16.8-2.9,39.3-1.2,56.1C94.2,413.5,40,338.2,40,250C40,133.9,133.9,40,250,40z"/>
</svg>
