<?xml version="1.0" encoding="utf-8"?>
<!-- Generator: Adobe Illustrator 26.3.1, SVG Export Plug-In . SVG Version: 6.00 Build 0)  -->
<svg version="1.1" id="Capa_1" xmlns="http://www.w3.org/2000/svg" xmlns:xlink="http://www.w3.org/1999/xlink" x="0px" y="0px"
	 viewBox="0 0 500 500" style="enable-background:new 0 0 500 500;" xml:space="preserve">
<path d="M342.2,54.7c-59.8,0-108.4,48.6-108.4,108.4c0,3.6,0.9,7.1,1.2,10.6c-73.9-7.1-139.3-42.7-183.8-97.2
	c-2.1-2.6-5.3-4-8.6-3.8c-3.3,0.2-6.3,2.1-7.9,5C25.4,93.9,20,112.3,20,132.2c0,24,8.6,46,21.9,64.1c-2.6-1.1-5.4-1.8-7.8-3.1
	c-3.1-1.6-6.8-1.6-9.8,0.2c-3,1.8-4.8,5-4.9,8.5v1.2c0,36.8,19.1,68.8,47.2,88.4c-0.3,0-0.6,0.1-0.9,0c-3.4-0.6-6.9,0.6-9.2,3.2
	s-3,6.2-2,9.6c11.2,34.7,39.7,61.2,75,70.9c-28.1,16.7-60.7,26.6-95.9,26.6c-7.6,0-14.9-0.4-22.2-1.2c-4.7-0.6-9.2,2.1-10.7,6.6
	c-1.6,4.5,0.2,9.4,4.2,11.9C49.8,448,103.4,465,160.9,465c93.3,0,166.5-39,215.6-94.7s74.7-128,74.7-195.6c0-2.9-0.2-5.6-0.3-8.4
	c18.3-14,34.7-30.5,47.5-49.7c2.5-3.7,2.3-8.7-0.7-12.1c-2.9-3.4-7.8-4.5-11.8-2.6c-5.2,2.3-11.2,2.5-16.6,4.4
	c7.1-9.5,13.2-19.7,16.9-31.2c1.2-3.9-0.1-8.3-3.4-10.9c-3.2-2.5-7.8-2.9-11.3-0.7c-17.1,10.1-36,17.2-55.9,21.6
	C396.2,66.9,370.7,54.7,342.2,54.7z M342.2,74.7c25.5,0,48.6,10.9,64.7,28.1c2.4,2.5,6,3.6,9.4,2.8c13-2.6,25.4-6.4,37.5-11.2
	c-7,9.4-15.5,17.4-25.6,23.4c-4.6,2.2-6.7,7.5-5,12.3c1.6,4.8,6.6,7.5,11.6,6.4c10-1.2,18.9-5.3,28.4-7.8
	c-8.6,9.3-17.9,17.6-28.1,25c-2.8,2-4.3,5.3-4.1,8.8c0.2,4.1,0.3,8.1,0.3,12.2c0,62.5-24,130.4-69.7,182.2S248.8,445,160.9,445
	c-39.9,0-77.5-8.8-111.6-24.4c42.2-3.2,81.1-18.2,112.5-42.8c3.3-2.6,4.6-7,3.2-11s-5-6.7-9.2-6.8c-33-0.6-60.6-19.8-75.3-46.9
	c0.5,0,1,0,1.6,0c9.9,0,19.6-1.2,28.8-3.8c4.4-1.3,7.4-5.4,7.2-9.9s-3.4-8.5-7.9-9.5c-35.6-7.2-62.3-36.2-68.4-72.2
	c10.1,3.5,20.4,6.2,31.6,6.6c4.6,0.3,8.7-2.6,10.1-6.9s-0.3-9.1-4.2-11.5C55.6,190,40,163,40,132.2c0-11.4,3-21.9,6.9-31.9
	c50,54.9,120,91.3,199.1,95.3c3.1,0.2,6.2-1.1,8.2-3.5c2-2.4,2.8-5.6,2.1-8.7c-1.5-6.5-2.5-13.4-2.5-20.3
	C253.8,114.1,293.2,74.7,342.2,74.7z"/>
</svg>
