<?xml version="1.0" encoding="utf-8"?>
<!-- Generator: Adobe Illustrator 26.3.1, SVG Export Plug-In . SVG Version: 6.00 Build 0)  -->
<svg version="1.1" id="Capa_1" xmlns="http://www.w3.org/2000/svg" xmlns:xlink="http://www.w3.org/1999/xlink" x="0px" y="0px"
	 viewBox="0 0 500 500" style="enable-background:new 0 0 500 500;" xml:space="preserve">
<style type="text/css">
	.st0{fill:#FFFFFF;}
</style>
<path class="st0" d="M449,145c-4-22-23-38-45-43c-33-7-94-12-160-12c-66,0-128,5-161,12c-22,5-41,20-45,43c-4,25-8,60-8,105
	s4,80,9,105c4,22,23,38,45,43c35,7,95,12,161,12s126-5,161-12c22-5,41-20,45-43c4-25,9-61,10-105C459,205,454,170,449,145z M190,320
	V180l122,70L190,320z"/>
</svg>
